<svg width="188" height="72" viewBox="0 0 188 72" fill="none" xmlns="http://www.w3.org/2000/svg">
<path d="M32.2286 30.5082C32.2286 40.6178 25.014 48.8133 16.1143 48.8133C7.21461 48.8133 0 40.6178 0 30.5082C0 20.3986 7.21461 12.2031 16.1143 12.2031C25.014 12.2031 32.2286 20.3986 32.2286 30.5082Z" fill="black"/>
<path d="M80.5714 41.492C80.5714 56.3194 64.4588 68.3394 44.5829 68.3394C24.7069 68.3394 8.5943 56.3194 8.5943 41.492C8.5943 26.6645 24.7069 14.6445 44.5829 14.6445C64.4588 14.6445 80.5714 26.6645 80.5714 41.492Z" fill="black"/>
<path d="M104.206 34.1695C104.206 53.0408 88.0931 68.339 68.2171 68.339C48.3412 68.339 32.2286 53.0408 32.2286 34.1695C32.2286 15.2982 48.3412 0 68.2171 0C88.0931 0 104.206 15.2982 104.206 34.1695Z" fill="black"/>
<path d="M132.137 45.7627C132.137 60.2532 119.872 72 104.743 72C89.6134 72 77.3486 60.2532 77.3486 45.7627C77.3486 31.2723 89.6134 19.5254 104.743 19.5254C119.872 19.5254 132.137 31.2723 132.137 45.7627Z" fill="black"/>
<path d="M140.731 26.2373C140.731 40.7277 128.467 52.4746 113.337 52.4746C98.2077 52.4746 85.9429 40.7277 85.9429 26.2373C85.9429 11.7468 98.2077 0 113.337 0C128.467 0 140.731 11.7468 140.731 26.2373Z" fill="black"/>
<path d="M167.589 37.2203C167.589 54.4067 154.362 68.339 138.046 68.339C121.73 68.339 108.503 54.4067 108.503 37.2203C108.503 20.034 121.73 6.1017 138.046 6.1017C154.362 6.1017 167.589 20.034 167.589 37.2203Z" fill="black"/>
<path d="M188 45.7632C188 57.5577 179.102 67.1191 168.126 67.1191C157.149 67.1191 148.251 57.5577 148.251 45.7632C148.251 33.9686 157.149 24.4072 168.126 24.4072C179.102 24.4072 188 33.9686 188 45.7632Z" fill="black"/>
</svg>
