<svg width="104" height="73" viewBox="0 0 104 73" fill="none" xmlns="http://www.w3.org/2000/svg">
<path d="M41.4829 48.6852C43.4307 63.0442 58.7471 72.8209 75.693 70.5221C92.6389 68.2234 104.797 54.7196 102.849 40.3607C100.902 26.0017 85.5852 16.225 68.6393 18.5238C51.6934 20.8225 39.5351 34.3263 41.4829 48.6852Z" fill="#19334A"/>
<path d="M29.2322 30.6431C31.18 45.0021 46.4964 54.7788 63.4423 52.48C80.3882 50.1813 92.5465 36.6775 90.5987 22.3186C88.6509 7.95966 73.3345 -1.81705 56.3886 0.481697C39.4427 2.78045 27.2844 16.2842 29.2322 30.6431Z" fill="#19334A"/>
<path d="M0.626902 45.6067C2.93711 62.6371 19.6247 74.4333 37.8997 71.9542C56.1747 69.4752 69.1167 53.6597 66.8065 36.6293C64.4963 19.5989 47.8087 7.80273 29.5337 10.2818C11.2587 12.7608 -1.68331 28.5763 0.626902 45.6067Z" fill="#19334A"/>
</svg>
